<?xml version="1.0" encoding="utf-8"?>
<!DOCTYPE svg PUBLIC "-//W3C//DTD SVG 1.1//EN" "http://www.w3.org/Graphics/SVG/1.1/DTD/svg11.dtd">
<svg version="1.1" id="icon_glasses" xmlns="http://www.w3.org/2000/svg" xmlns:xlink="http://www.w3.org/1999/xlink" x="0px"
	 y="0px" width="100px" height="100px" viewBox="0 0 100 100" enable-background="new 0 0 100 100" xml:space="preserve">
<path fill-rule="evenodd" clip-rule="evenodd" fill="#222222" d="M71.773,36.031c0.75,0,1.391,0.28,1.924,0.84
	c0.533,0.564,0.798,1.223,0.798,1.975v25.879c0,0.752-0.265,1.404-0.798,1.949s-1.174,0.815-1.924,0.815h-38.52
	c-0.748,0-1.393-0.271-1.933-0.815c-0.54-0.545-0.811-1.197-0.811-1.949V38.846c0-0.752,0.271-1.41,0.811-1.975
	c0.541-0.56,1.186-0.84,1.933-0.84h8.736l1.383-3.016c0.288-0.688,0.813-1.276,1.575-1.768c0.764-0.486,1.521-0.731,2.269-0.731
	h10.573c0.746,0,1.504,0.245,2.268,0.731c0.763,0.491,1.296,1.08,1.598,1.768l1.361,3.016H71.773L71.773,36.031z M52.514,63.354
	c1.561,0,3.04-0.31,4.439-0.918c1.4-0.609,2.615-1.439,3.64-2.49c1.027-1.051,1.843-2.278,2.446-3.673s0.908-2.897,0.908-4.498
	c0-1.577-0.305-3.074-0.908-4.494c-0.604-1.419-1.419-2.646-2.446-3.683c-1.024-1.036-2.239-1.856-3.64-2.47
	c-1.399-0.609-2.879-0.914-4.439-0.914c-1.559,0-3.043,0.305-4.45,0.914c-1.41,0.613-2.626,1.434-3.651,2.47
	c-1.027,1.036-1.843,2.259-2.447,3.673c-0.606,1.409-0.908,2.912-0.908,4.504c0,1.601,0.302,3.104,0.908,4.498
	c0.604,1.395,1.419,2.622,2.447,3.673c1.025,1.051,2.242,1.881,3.651,2.49C49.471,63.045,50.955,63.354,52.514,63.354z
	 M52.514,43.923c1.083,0,2.094,0.206,3.033,0.613c0.938,0.413,1.758,0.968,2.456,1.675c0.7,0.707,1.254,1.537,1.66,2.49
	c0.404,0.958,0.608,1.979,0.608,3.074c0,1.09-0.204,2.106-0.608,3.055c-0.406,0.947-0.96,1.782-1.66,2.504
	c-0.698,0.722-1.524,1.287-2.468,1.699c-0.947,0.407-1.955,0.608-3.021,0.608c-1.081,0-2.096-0.201-3.043-0.608
	c-0.947-0.412-1.77-0.978-2.468-1.699c-0.702-0.722-1.254-1.562-1.66-2.515c-0.404-0.957-0.609-1.974-0.609-3.044
	c0-1.096,0.205-2.116,0.609-3.074c0.406-0.953,0.958-1.783,1.66-2.49c0.698-0.707,1.521-1.262,2.468-1.675
	C50.417,44.129,51.433,43.923,52.514,43.923z"/>
</svg>
