<?xml version="1.0" encoding="utf-8"?>
<!DOCTYPE svg PUBLIC "-//W3C//DTD SVG 1.1//EN" "http://www.w3.org/Graphics/SVG/1.1/DTD/svg11.dtd">
<svg version="1.1" id="icon_moustache" xmlns="http://www.w3.org/2000/svg" xmlns:xlink="http://www.w3.org/1999/xlink" x="0px"
	 y="0px" width="130px" height="130px" viewBox="0 0 130 130" enable-background="new 0 0 130 130" xml:space="preserve">
<g id="circle" opacity="0.1">
	<path fill="#555555" d="M65,1c35.29,0,64,28.71,64,64s-28.71,64-64,64S1,100.29,1,65S29.71,1,65,1 M65,0C29.101,0,0,29.101,0,65
		c0,35.898,29.101,65,65,65c35.898,0,65-29.102,65-65C130,29.101,100.898,0,65,0L65,0z"/>
</g>
<path fill-rule="evenodd" clip-rule="evenodd" fill="#222222" d="M87.402,51.779c0.852,0,1.579,0.318,2.186,0.953
	c0.605,0.641,0.906,1.388,0.906,2.241V84.35c0,0.854-0.301,1.594-0.906,2.213c-0.606,0.619-1.334,0.926-2.186,0.926H43.629
	c-0.85,0-1.582-0.307-2.196-0.926s-0.922-1.359-0.922-2.213V54.973c0-0.853,0.308-1.6,0.922-2.241
	c0.614-0.635,1.347-0.953,2.196-0.953h9.928l1.571-3.423c0.327-0.78,0.924-1.449,1.79-2.007c0.868-0.552,1.729-0.831,2.578-0.831
	H71.51c0.849,0,1.71,0.278,2.578,0.831c0.866,0.558,1.472,1.227,1.814,2.007l1.547,3.423H87.402L87.402,51.779z M65.515,82.795
	c1.773,0,3.456-0.352,5.047-1.043c1.59-0.691,2.971-1.634,4.135-2.826c1.168-1.193,2.095-2.587,2.78-4.17
	c0.687-1.583,1.032-3.289,1.032-5.105c0-1.789-0.346-3.49-1.032-5.101c-0.686-1.611-1.612-3.004-2.78-4.181
	c-1.164-1.176-2.545-2.107-4.135-2.804c-1.591-0.691-3.273-1.037-5.047-1.037c-1.77,0-3.457,0.346-5.056,1.037
	c-1.603,0.696-2.985,1.627-4.15,2.804c-1.167,1.176-2.094,2.564-2.779,4.169c-0.689,1.601-1.032,3.306-1.032,5.112
	c0,1.816,0.343,3.522,1.032,5.105c0.686,1.583,1.612,2.977,2.779,4.17c1.165,1.192,2.548,2.135,4.15,2.826
	C62.058,82.443,63.745,82.795,65.515,82.795z M65.515,60.736c1.231,0,2.38,0.234,3.447,0.697c1.065,0.468,1.997,1.098,2.791,1.9
	c0.797,0.803,1.425,1.745,1.887,2.826c0.459,1.088,0.691,2.247,0.691,3.49c0,1.236-0.232,2.391-0.691,3.467
	c-0.462,1.076-1.09,2.023-1.887,2.843c-0.794,0.819-1.731,1.461-2.805,1.929c-1.076,0.463-2.222,0.691-3.434,0.691
	c-1.228,0-2.381-0.229-3.457-0.691c-1.076-0.468-2.012-1.109-2.805-1.929c-0.798-0.819-1.425-1.772-1.887-2.854
	c-0.46-1.086-0.692-2.24-0.692-3.455c0-1.243,0.232-2.402,0.692-3.49c0.462-1.081,1.089-2.023,1.887-2.826
	c0.793-0.802,1.729-1.433,2.805-1.9C63.134,60.97,64.287,60.736,65.515,60.736z"/>
</svg>
